<svg xmlns="http://www.w3.org/2000/svg" viewBox="0 0 27.269 27.269" enable-background="new 0 0 27.269 27.269"><radialGradient id="a" cx="13.635" cy="13.634" r="13.069" gradientUnits="userSpaceOnUse"><stop offset="0" stop-color="#FFF7F7"/><stop offset="1" stop-color="#FDCBCB"/></radialGradient><path fill="url(#a)" stroke="#333" stroke-width="1.131" stroke-miterlimit="22.926" d="M13.634.565c7.218 0 13.069 5.852 13.069 13.069s-5.851 13.068-13.069 13.068-13.068-5.849-13.068-13.067 5.851-13.07 13.068-13.07z"/><path stroke="#333" stroke-width="1.131" stroke-linecap="round" stroke-linejoin="round" stroke-miterlimit="22.926" d="M7.296 20.76c.106-3.409 2.903-6.14 6.338-6.14s6.232 2.73 6.338 6.14" fill="none"/><path stroke="#333" stroke-width=".99" stroke-linecap="round" stroke-linejoin="round" stroke-miterlimit="22.926" d="M8.841 7.12c1.013 0 1.834.821 1.834 1.834s-.821 1.833-1.834 1.833c-1.013 0-1.833-.82-1.833-1.833 0-.451.163-.865.433-1.185m10.986-.649c1.013 0 1.834.821 1.834 1.834s-.821 1.833-1.834 1.833c-1.013 0-1.833-.82-1.833-1.833 0-.451.163-.865.433-1.185" fill="none"/></svg>