<svg xmlns="http://www.w3.org/2000/svg" viewBox="0 0 13.09 17.938" enable-background="new 0 0 13.09 17.938"><path stroke="#B7B7B7" stroke-width="1.938" stroke-linecap="round" stroke-linejoin="round" stroke-miterlimit="22.926" d="M2.424 6.494v-1.827c.01-5.008 8.231-4.853 8.27 0v1.84" fill="none"/><path fill-rule="evenodd" clip-rule="evenodd" fill="#B7B7B7" d="M5.01 9.233h3.07v-.055c0-.478.391-.868.867-.868h3.275c.477 0 .867.391.867.868v3.3840000000000003c.029 3.117-3.407 5.379-6.71 5.376-3.225-.003-6.346-2.3-6.38-5.376v-3.384c.001-.478.392-.868.869-.868h3.275c.477 0 .867.39.867.868v.055z"/><path fill-rule="evenodd" clip-rule="evenodd" fill="#fff" d="M6.545 11.14c.688 0 1.246.558 1.246 1.245 0 .521-.32.968-.775 1.153v2.201h-.941v-2.201c-.455-.186-.775-.632-.775-1.153-.001-.688.557-1.245 1.245-1.245z"/></svg>