<svg xmlns="http://www.w3.org/2000/svg" viewBox="17.424 90.076 577.125 611.854" enable-background="new 17.424 90.076 577.125 611.854"><path fill="#6F8E51" d="M574.951 446.376c-8.938-9.047-22.104-11.335-33.171-6.865-33.871-21.352-69.843-35.245-107.483-43.161-34.895-7.351-71.055-9.531-108.211-7.781 3.285-42.03 1.346-81.959-5.17-119.977-6.354-36.995-17.07-72.212-31.556-105.841 9.208-11.847 8.428-28.998-2.369-39.983-11.793-12.009-31.071-12.17-43.053-.377l-205.543 202.851c-11.981 11.793-12.143 31.098-.35 43.026 8.912 9.074 22.105 11.389 33.171 6.866 33.872 21.352 69.843 35.271 107.484 43.187 34.868 7.324 71.055 9.531 108.184 7.781-3.258 42.03-1.319 81.959 5.197 119.978 6.327 36.968 17.07 72.185 31.556 105.813-9.235 11.874-8.454 29.025 2.315 40.037 11.82 12.009 31.099 12.171 43.053.377l205.57-202.878c12.008-11.793 12.169-31.072.376-43.053zm-283.491-55.276l-.888.081-.027.377c-36.375 2.1-71.485.269-104.872-6.758-30.452-6.408-59.639-17.151-87.29-33.225l164.752-162.599c10.77 27.302 18.875 55.68 23.963 85.378 6.301 36.806 7.998 75.659 4.362 116.746zm58.374 234.542c-8.886-22.536-15.994-45.907-21.056-70.059l123.208-119.465c21.594 6.408 42.487 15.293 62.573 26.951l-164.725 162.573zM147.333 503.106c7.943 6.866 8.804 18.901 1.938 26.845-6.893 7.942-18.901 8.804-26.844 1.938l-23.721-20.49c6.866 28.002 18.417 53.607 33.979 76.063 23.452 33.791 56.192 60.607 95.987 78.001 9.612 4.174 14.028 15.401 9.828 25.04-4.173 9.612-15.401 14.028-25.04 9.854-46.391-20.301-84.625-51.695-112.115-91.302-17.097-24.636-29.994-52.423-38.125-82.659l-9.37 20.705c-4.308 9.559-15.589 13.866-25.202 9.531-9.585-4.308-13.866-15.589-9.531-25.201l34.84-76.628c.727-1.643 1.724-3.204 2.962-4.631 6.866-7.943 18.875-8.777 26.817-1.938l63.597 54.872zM383.274 126.537c-9.612-4.173-14.028-15.401-9.828-25.04 4.2-9.639 15.401-14.028 25.04-9.828 46.392 20.274 84.625 51.668 112.115 91.275 17.097 24.636 30.021 52.422 38.125 82.659l9.424-20.678c4.309-9.559 15.563-13.866 25.175-9.532 9.585 4.308 13.866 15.59 9.531 25.202l-34.813 76.628-.027-.027c-.727 1.669-1.696 3.204-2.961 4.658-6.866 7.942-18.875 8.804-26.817 1.912l-63.569-54.846c-7.943-6.866-8.777-18.901-1.912-26.844 6.866-7.943 18.875-8.804 26.844-1.912l23.694 20.463c-6.866-28.002-18.39-53.607-33.979-76.063-23.48-33.79-56.22-60.607-96.042-78.027z"/></svg>