<svg xmlns="http://www.w3.org/2000/svg" viewBox="0 0 119.049 80.102" enable-background="new 0 0 119.049 80.102"><g fill-rule="evenodd" clip-rule="evenodd"><path fill="#fff" d="M7.701 63.395l-3.146 16.371 15.714-5.207c5.782 3.268 12.461 5.135 19.578 5.135 22.008 0 39.846-17.838 39.846-39.846 0-22.01-17.838-39.848-39.846-39.848-22.009 0-39.847 17.838-39.847 39.848 0 8.81 2.861 16.951 7.701 23.547z"/><path fill="#29ADD6" d="M38.543 54.287c3.083 0 5.582 2.5 5.582 5.582s-2.5 5.582-5.582 5.582c-3.083 0-5.581-2.5-5.581-5.582s2.498-5.582 5.581-5.582zm-14.22-24.041c-1.649-1.063-1.806-3.303-.943-6.348 2.758-6.488 8.71-10.443 19.491-9.522 10.782.921 16.776 11.13 12.647 18.697-2.025 3.519-3.926 4.682-8.084 7.787-2.88 1.709-3.632 3.232-5.058 6.695-1.889 4.209-10.263 1.561-7.985-4.811 1.458-4.299 5.219-5.886 9.72-10.217 3.85-3.443 1.837-9.584-2.827-10.316-4.375-.634-7.214.965-8.679 4.563-1.464 3.925-3.907 5.764-8.282 3.472zM89.49 20.985c16.326 0 29.559 13.233 29.559 29.558 0 6.766-2.273 12.998-6.096 17.98l1.99 11.514-11.152-3.619c-4.238 2.348-9.113 3.684-14.301 3.684-16.326 0-29.558-13.23-29.558-29.559 0-16.325 13.232-29.558 29.558-29.558z"/><path fill="#fff" d="M101.699 46.51c2.229 0 4.033 1.807 4.033 4.033 0 2.229-1.805 4.035-4.033 4.035-2.227 0-4.033-1.807-4.033-4.035 0-2.227 1.807-4.033 4.033-4.033zm-24.597 0c2.227 0 4.033 1.807 4.033 4.033 0 2.229-1.807 4.035-4.033 4.035-2.229 0-4.035-1.807-4.035-4.035-.001-2.227 1.806-4.033 4.035-4.033zm12.298 0c2.227 0 4.033 1.807 4.033 4.033 0 2.229-1.807 4.035-4.033 4.035-2.229 0-4.033-1.807-4.033-4.035 0-2.227 1.805-4.033 4.033-4.033z"/></g></svg>