<svg xmlns="http://www.w3.org/2000/svg" viewBox="0 0 27.269 27.269" enable-background="new 0 0 27.269 27.269"><path fill-rule="evenodd" clip-rule="evenodd" fill="#fff" stroke="#616261" stroke-width="1.131" stroke-linecap="round" stroke-linejoin="round" stroke-miterlimit="22.926" d="M13.634.566c7.218 0 13.069 5.851 13.069 13.068s-5.851 13.069-13.069 13.069-13.068-5.851-13.068-13.069 5.851-13.068 13.068-13.068z"/><path stroke="#616261" stroke-width="1.131" stroke-linecap="round" stroke-linejoin="round" stroke-miterlimit="22.926" d="M7.296 20.76c.106-3.41 2.903-6.14 6.338-6.14s6.232 2.73 6.338 6.14" fill="none"/><path stroke="#616261" stroke-width=".99" stroke-linecap="round" stroke-linejoin="round" stroke-miterlimit="22.926" d="M8.841 7.12c1.013 0 1.834.821 1.834 1.833s-.821 1.834-1.834 1.834c-1.013 0-1.833-.821-1.833-1.834 0-.451.163-.864.433-1.184m10.986-.649c1.013 0 1.834.821 1.834 1.833s-.821 1.834-1.834 1.834c-1.013 0-1.833-.821-1.833-1.834 0-.451.163-.864.433-1.184" fill="none"/></svg>