<svg xmlns="http://www.w3.org/2000/svg" viewBox="0 0 26.15 26.15" enable-background="new 0 0 26.15 26.15"><g fill-rule="evenodd" clip-rule="evenodd"><path d="M13.076 0c.717 0 1.299 2.012 1.299 4.495s-.582 4.495-1.299 4.495c-.718 0-1.3-2.012-1.3-4.495s.582-4.495 1.3-4.495z"/><path fill="#999" d="M0 13.076c0-.719 2.013-1.3 4.495-1.3 2.483 0 4.495.582 4.495 1.3 0 .717-2.012 1.299-4.495 1.299-2.482 0-4.495-.582-4.495-1.299z"/><path fill="#B3B3B3" d="M3.83 3.83c.507-.507 2.342.504 4.097 2.259 1.756 1.755 2.767 3.589 2.259 4.097-.508.508-2.342-.503-4.098-2.259s-2.766-3.59-2.258-4.097z"/><path fill="#1A1A1A" d="M22.322 3.83c-.508-.507-2.342.504-4.098 2.259s-2.768 3.589-2.26 4.097 2.342-.503 4.098-2.259 2.768-3.59 2.26-4.097z"/><path fill="#666" d="M13.076 17.162c.717 0 1.299 2.012 1.299 4.494s-.582 4.494-1.299 4.494c-.718 0-1.3-2.012-1.3-4.494s.582-4.494 1.3-4.494z"/><path fill="#333" d="M17.162 13.076c0-.719 2.012-1.3 4.494-1.3s4.494.582 4.494 1.3c0 .717-2.012 1.299-4.494 1.299s-4.494-.582-4.494-1.299z"/><path fill="#4D4D4D" d="M15.965 15.965c.508-.508 2.342.504 4.098 2.26 1.756 1.754 2.766 3.59 2.258 4.096-.506.508-2.342-.502-4.096-2.258-1.756-1.756-2.768-3.59-2.26-4.098z"/><path fill="#808080" d="M10.187 15.965c-.507-.508-2.342.504-4.098 2.26-1.755 1.754-2.766 3.59-2.258 4.096.507.508 2.342-.502 4.097-2.258s2.766-3.59 2.259-4.098z"/></g></svg>