<svg xmlns="http://www.w3.org/2000/svg" viewBox="0 0 27.269 27.269" enable-background="new 0 0 27.269 27.269"><radialGradient id="a" cx="13.635" cy="13.634" r="13.069" gradientUnits="userSpaceOnUse"><stop offset="0" stop-color="#FFFEFD"/><stop offset="1" stop-color="#FFDD9E"/></radialGradient><path fill="url(#a)" stroke="#333" stroke-width="1.131" stroke-miterlimit="22.926" d="M13.635.565c7.218 0 13.068 5.852 13.068 13.069s-5.851 13.068-13.068 13.068-13.069-5.851-13.069-13.068 5.851-13.069 13.069-13.069z"/><path stroke="#333" stroke-width=".99" stroke-linecap="round" stroke-linejoin="round" stroke-miterlimit="22.926" d="M8.842 9.022c1.013 0 1.834.821 1.834 1.834s-.821 1.834-1.834 1.834c-1.013 0-1.833-.821-1.833-1.834 0-.451.164-.864.434-1.185m10.985-.649c1.013 0 1.834.821 1.834 1.834s-.821 1.834-1.834 1.834-1.833-.821-1.833-1.834c0-.451.163-.864.433-1.185" fill="none"/><path stroke="#333" stroke-width="1.131" stroke-linecap="round" stroke-linejoin="round" stroke-miterlimit="22.926" fill="none" d="M6.934 18.561h14.541"/></svg>