<?xml version="1.0" encoding="utf-8"?>
<!-- width="577.125px" height="611.854px" -->
<!DOCTYPE svg PUBLIC "-//W3C//DTD SVG 1.1//EN" "http://www.w3.org/Graphics/SVG/1.1/DTD/svg11.dtd">
<svg version="1.1" id="Layer_1" xmlns="http://www.w3.org/2000/svg" xmlns:xlink="http://www.w3.org/1999/xlink" x="0px" y="0px"
	  viewBox="17.424 90.076 577.125 611.854"
	 enable-background="new 17.424 90.076 577.125 611.854" xml:space="preserve">
<path fill="#6F8E51" d="M574.951,446.376c-8.938-9.047-22.104-11.335-33.171-6.865c-33.871-21.352-69.843-35.245-107.483-43.161
	c-34.895-7.351-71.055-9.531-108.211-7.781c3.285-42.03,1.346-81.959-5.17-119.977c-6.354-36.995-17.07-72.212-31.556-105.841
	c9.208-11.847,8.428-28.998-2.369-39.983c-11.793-12.009-31.071-12.17-43.053-0.377L38.395,325.242
	c-11.981,11.793-12.143,31.098-0.35,43.026c8.912,9.074,22.105,11.389,33.171,6.866c33.872,21.352,69.843,35.271,107.484,43.187
	c34.868,7.324,71.055,9.531,108.184,7.781c-3.258,42.03-1.319,81.959,5.197,119.978c6.327,36.968,17.07,72.185,31.556,105.813
	c-9.235,11.874-8.454,29.025,2.315,40.037c11.82,12.009,31.099,12.171,43.053,0.377l205.57-202.878
	C586.583,477.636,586.744,458.357,574.951,446.376z M291.46,391.1l-0.888,0.081l-0.027,0.377
	c-36.375,2.1-71.485,0.269-104.872-6.758c-30.452-6.408-59.639-17.151-87.29-33.225l164.752-162.599
	c10.77,27.302,18.875,55.68,23.963,85.378C293.399,311.16,295.096,350.013,291.46,391.1z M349.834,625.642
	c-8.886-22.536-15.994-45.907-21.056-70.059l123.208-119.465c21.594,6.408,42.487,15.293,62.573,26.951L349.834,625.642z"/>
<path fill="#6F8E51" d="M147.333,503.106c7.943,6.866,8.804,18.901,1.938,26.845c-6.893,7.942-18.901,8.804-26.844,1.938
	l-23.721-20.49c6.866,28.002,18.417,53.607,33.979,76.063c23.452,33.791,56.192,60.607,95.987,78.001
	c9.612,4.174,14.028,15.401,9.828,25.04c-4.173,9.612-15.401,14.028-25.04,9.854c-46.391-20.301-84.625-51.695-112.115-91.302
	c-17.097-24.636-29.994-52.423-38.125-82.659l-9.37,20.705c-4.308,9.559-15.589,13.866-25.202,9.531
	c-9.585-4.308-13.866-15.589-9.531-25.201l34.84-76.628l0,0c0.727-1.643,1.724-3.204,2.962-4.631
	c6.866-7.943,18.875-8.777,26.817-1.938L147.333,503.106L147.333,503.106z"/>
<path fill="#6F8E51" d="M383.274,126.537c-9.612-4.173-14.028-15.401-9.828-25.04c4.2-9.639,15.401-14.028,25.04-9.828
	c46.392,20.274,84.625,51.668,112.115,91.275c17.097,24.636,30.021,52.422,38.125,82.659l9.424-20.678
	c4.309-9.559,15.563-13.866,25.175-9.532c9.585,4.308,13.866,15.59,9.531,25.202l-34.813,76.628l-0.027-0.027
	c-0.727,1.669-1.696,3.204-2.961,4.658c-6.866,7.942-18.875,8.804-26.817,1.912l-63.569-54.846
	c-7.943-6.866-8.777-18.901-1.912-26.844c6.866-7.943,18.875-8.804,26.844-1.912l23.694,20.463
	c-6.866-28.002-18.39-53.607-33.979-76.063C455.836,170.774,423.096,143.957,383.274,126.537L383.274,126.537z"/>
</svg>
