<?xml version="1.0" encoding="utf-8"?>
<!-- width="196.218px" height="196.218px"   -->
<!DOCTYPE svg PUBLIC "-//W3C//DTD SVG 1.1//EN" "http://www.w3.org/Graphics/SVG/1.1/DTD/svg11.dtd">
<svg version="1.1" id="Layer_1" xmlns="http://www.w3.org/2000/svg" xmlns:xlink="http://www.w3.org/1999/xlink" x="0px" y="0px"
	 viewBox="-0.458 -0.458 196.218 196.218"
	 enable-background="new -0.458 -0.458 196.218 196.218" xml:space="preserve">
<path fill="#393434" d="M175.327,191.327H19.975c-8.822,0-16-7.178-16-16V19.975c0-8.822,7.178-16,16-16h155.353
	c8.822,0,16,7.178,16,16v155.353C191.327,184.149,184.149,191.327,175.327,191.327z M19.975,15.975c-2.206,0-4,1.794-4,4v155.353
	c0,2.206,1.794,4,4,4h155.353c2.206,0,4-1.794,4-4V19.975c0-2.206-1.794-4-4-4H19.975z"/>
</svg>
