<?xml version="1.0" encoding="utf-8"?>
<!-- width="27.269px" height="27.269px"   -->
<!DOCTYPE svg PUBLIC "-//W3C//DTD SVG 1.1//EN" "http://www.w3.org/Graphics/SVG/1.1/DTD/svg11.dtd">
<svg version="1.1" id="Layer_1" xmlns="http://www.w3.org/2000/svg" xmlns:xlink="http://www.w3.org/1999/xlink" x="0px" y="0px"
	 viewBox="0 0 27.269 27.269" enable-background="new 0 0 27.269 27.269" xml:space="preserve">
<path fill-rule="evenodd" clip-rule="evenodd" fill="#FFFFFF" stroke="#616261" stroke-width="1.1315" stroke-linecap="round" stroke-linejoin="round" stroke-miterlimit="22.9256" d="
	M13.634,0.566c7.218,0,13.069,5.851,13.069,13.068s-5.851,13.069-13.069,13.069S0.566,20.852,0.566,13.634S6.417,0.566,13.634,0.566
	L13.634,0.566z"/>
<path fill="none" stroke="#616261" stroke-width="1.1315" stroke-linecap="round" stroke-linejoin="round" stroke-miterlimit="22.9256" d="
	M7.296,20.76c0.106-3.41,2.903-6.14,6.338-6.14c3.435,0,6.232,2.73,6.338,6.14"/>
<path fill="none" stroke="#616261" stroke-width="0.9901" stroke-linecap="round" stroke-linejoin="round" stroke-miterlimit="22.9256" d="
	M8.841,7.12c1.013,0,1.834,0.821,1.834,1.833s-0.821,1.834-1.834,1.834c-1.013,0-1.833-0.821-1.833-1.834
	c0-0.451,0.163-0.864,0.433-1.184 M18.427,7.12c1.013,0,1.834,0.821,1.834,1.833s-0.821,1.834-1.834,1.834
	c-1.013,0-1.833-0.821-1.833-1.834c0-0.451,0.163-0.864,0.433-1.184"/>
</svg>
