<svg xmlns="http://www.w3.org/2000/svg" viewBox="0 0 23.74 23.74" enable-background="new 0 0 23.74 23.74"><g stroke="#ED7070" stroke-width="1.134" stroke-miterlimit="22.926" fill="none"><path d="M4.241 7.246h15.258c.129 0 .234.105.234.233v3.186c0 .128-.105.233-.234.233h-15.258c-.129 0-.234-.105-.234-.233v-3.186c0-.128.105-.233.234-.233zm6.057 12.816c1.019.059 2.068.059 3.145 0v2.59c0 .287-.236.523-.523.523h-2.182c-.241 0-.439-.197-.439-.439v-2.674h-.001zm8.422-9.164v3.044c0 3.375-2.764 6.139-6.139 6.139h-1.522c-3.376 0-6.138-2.764-6.138-6.139v-2.993l13.799-.051zm-12.024-3.687h3.5v-4.895c0-.963-.788-1.75-1.75-1.75s-1.75.788-1.75 1.75v4.895zm6.696 0h3.502v-4.895c0-.963-.789-1.75-1.752-1.75-.961 0-1.75.788-1.75 1.75v4.895zM11.824 13.386c.901 0 1.634.73 1.634 1.633s-.732 1.635-1.634 1.635c-.902 0-1.634-.732-1.634-1.635s.732-1.633 1.634-1.633z"/></g></svg>