<svg xmlns="http://www.w3.org/2000/svg" viewBox="0 0 27.269 27.269" enable-background="new 0 0 27.269 27.269"><radialGradient id="a" cx="13.634" cy="13.634" r="13.069" gradientUnits="userSpaceOnUse"><stop offset="0" stop-color="#fff"/><stop offset="1" stop-color="#9FFF94"/></radialGradient><path fill="url(#a)" stroke="#333" stroke-width="1.131" stroke-linecap="round" stroke-linejoin="round" stroke-miterlimit="22.926" d="M13.635.565c7.218 0 13.068 5.852 13.068 13.069s-5.851 13.068-13.068 13.068-13.07-5.849-13.07-13.067 5.852-13.07 13.07-13.07z"/><path stroke="#333" stroke-width="1.131" stroke-linecap="round" stroke-linejoin="round" stroke-miterlimit="22.926" d="M5.665 13.83c.134 4.286 3.65 7.72 7.97 7.72 4.318 0 7.835-3.434 7.969-7.72" fill="none"/><path stroke="#333" stroke-width=".99" stroke-linecap="round" stroke-linejoin="round" stroke-miterlimit="22.926" d="M8.842 7.12c1.013 0 1.833.821 1.833 1.834s-.82 1.833-1.833 1.833-1.834-.82-1.834-1.833c0-.451.163-.865.434-1.185m10.986-.649c1.013 0 1.833.821 1.833 1.834s-.82 1.833-1.833 1.833c-1.014 0-1.834-.82-1.834-1.833 0-.451.163-.865.434-1.185" fill="none"/></svg>