<?xml version="1.0" encoding="utf-8"?>
<!-- width="27.269px" height="27.269px"  -->
<!DOCTYPE svg PUBLIC "-//W3C//DTD SVG 1.1//EN" "http://www.w3.org/Graphics/SVG/1.1/DTD/svg11.dtd">
<svg version="1.1" id="Layer_1" xmlns="http://www.w3.org/2000/svg" xmlns:xlink="http://www.w3.org/1999/xlink" x="0px" y="0px"
	  viewBox="0 0 27.269 27.269" enable-background="new 0 0 27.269 27.269" xml:space="preserve">
<radialGradient id="SVGID_1_" cx="13.6348" cy="13.6338" r="13.0688" gradientUnits="userSpaceOnUse">
	<stop  offset="0" style="stop-color:#FFFEFD"/>
	<stop  offset="1" style="stop-color:#FFDD9E"/>
</radialGradient>
<path fill="url(#SVGID_1_)" stroke="#333333" stroke-width="1.1315" stroke-miterlimit="22.9256" d="M13.635,0.565
	c7.218,0,13.068,5.852,13.068,13.069s-5.851,13.068-13.068,13.068c-7.217,0-13.069-5.851-13.069-13.068S6.417,0.565,13.635,0.565
	L13.635,0.565z"/>
<path fill="none" stroke="#333333" stroke-width="0.9901" stroke-linecap="round" stroke-linejoin="round" stroke-miterlimit="22.9256" d="
	M8.842,9.022c1.013,0,1.834,0.821,1.834,1.834S9.855,12.69,8.842,12.69c-1.013,0-1.833-0.821-1.833-1.834
	c0-0.451,0.164-0.864,0.434-1.185 M18.428,9.022c1.013,0,1.834,0.821,1.834,1.834s-0.821,1.834-1.834,1.834
	s-1.833-0.821-1.833-1.834c0-0.451,0.163-0.864,0.433-1.185"/>
<line fill="none" stroke="#333333" stroke-width="1.1315" stroke-linecap="round" stroke-linejoin="round" stroke-miterlimit="22.9256" x1="6.934" y1="18.561" x2="21.475" y2="18.561"/>
</svg>
