<?xml version="1.0" encoding="utf-8"?>
<!-- width="195.305px" height="195.305px"   -->
<!DOCTYPE svg PUBLIC "-//W3C//DTD SVG 1.1//EN" "http://www.w3.org/Graphics/SVG/1.1/DTD/svg11.dtd">
<svg version="1.1" id="Layer_1" xmlns="http://www.w3.org/2000/svg" xmlns:xlink="http://www.w3.org/1999/xlink" x="0px" y="0px"
	 viewBox="0 0 195.305 195.305" enable-background="new 0 0 195.305 195.305"
	 xml:space="preserve">
<g id="Layer_x0020_1">
	<polygon fill="#009966" points="83.5,113.075 49.965,80.362 34.132,95.673 83.201,143.846 191.72,35.252 176.559,20.016 	"/>
</g>
<path fill="#393434" d="M180.152,85.92v90.232c0,2.206-1.794,4-4,4h-156c-2.206,0-4-1.794-4-4v-156c0-2.206,1.794-4,4-4h114.229v-12
	H20.152c-8.822,0-16,7.178-16,16v156c0,8.822,7.178,16,16,16h156c8.822,0,16-7.178,16-16V85.92H180.152z"/>
</svg>
