<?xml version="1.0" encoding="utf-8"?>
<!-- width="22.148px" height="23.549px"   -->
<!DOCTYPE svg PUBLIC "-//W3C//DTD SVG 1.1//EN" "http://www.w3.org/Graphics/SVG/1.1/DTD/svg11.dtd">
<svg version="1.1" id="Layer_1" xmlns="http://www.w3.org/2000/svg" xmlns:xlink="http://www.w3.org/1999/xlink" x="0px" y="0px"
	 viewBox="0 0 22.148 23.549" enable-background="new 0 0 22.148 23.549" xml:space="preserve">
<g>
	
		<path fill="none" stroke="#aeaeae" stroke-width="1.1931" stroke-linecap="round" stroke-linejoin="round" stroke-miterlimit="22.9256" d="
		M2.059,5.034l-1.33,2.303c-0.273,0.474-0.11,1.085,0.364,1.358l1.423,0.821c-0.192,0.72-0.295,1.477-0.295,2.257
		c0,0.781,0.103,1.538,0.295,2.258l-1.423,0.821c-0.473,0.273-0.637,0.885-0.363,1.358l1.33,2.303
		c0.273,0.474,0.885,0.638,1.358,0.364l1.451-0.838c1.066,1.038,2.397,1.807,3.882,2.193v1.724c0,0.547,0.448,0.994,0.995,0.994
		h2.66c0.547,0,0.994-0.447,0.994-0.994v-1.784c1.434-0.415,2.716-1.187,3.743-2.213l1.59,0.918
		c0.474,0.273,1.085,0.109,1.358-0.364l1.33-2.303c0.273-0.474,0.109-1.085-0.364-1.358l-1.614-0.933
		c0.173-0.687,0.266-1.406,0.266-2.146s-0.093-1.459-0.266-2.146l1.614-0.932c0.474-0.273,0.638-0.885,0.364-1.358l-1.33-2.303
		c-0.273-0.474-0.885-0.637-1.358-0.364l-1.59,0.918c-1.027-1.026-2.31-1.798-3.743-2.213V1.591c0-0.546-0.447-0.994-0.994-0.994
		h-2.66c-0.547,0-0.995,0.448-0.995,0.994v1.724C7.266,3.702,5.935,4.47,4.868,5.508L3.417,4.67
		C2.943,4.397,2.333,4.561,2.059,5.034L2.059,5.034z M10.964,7.514c2.353,0,4.261,1.907,4.261,4.26c0,2.354-1.908,4.261-4.261,4.261
		c-2.354,0-4.261-1.907-4.261-4.261C6.703,9.421,8.61,7.514,10.964,7.514L10.964,7.514z"/>
</g>
</svg>
