<svg xmlns="http://www.w3.org/2000/svg" viewBox="0 0 27.269 27.269" enable-background="new 0 0 27.269 27.269"><path fill-rule="evenodd" clip-rule="evenodd" fill="#fff" stroke="#616261" stroke-width="1.131" stroke-linecap="round" stroke-linejoin="round" stroke-miterlimit="22.926" d="M13.635.566c7.218 0 13.068 5.851 13.068 13.068s-5.851 13.069-13.068 13.069-13.07-5.851-13.07-13.069 5.852-13.068 13.07-13.068z"/><path stroke="#616261" stroke-width="1.131" stroke-linecap="round" stroke-linejoin="round" stroke-miterlimit="22.926" d="M5.665 13.83c.134 4.286 3.65 7.72 7.97 7.72 4.318 0 7.835-3.434 7.969-7.72" fill="none"/><path stroke="#616261" stroke-width=".99" stroke-linecap="round" stroke-linejoin="round" stroke-miterlimit="22.926" d="M8.842 7.12c1.013 0 1.833.821 1.833 1.833s-.82 1.834-1.833 1.834-1.834-.821-1.834-1.833c0-.451.163-.864.434-1.184m10.986-.65c1.013 0 1.833.821 1.833 1.833s-.82 1.834-1.833 1.834c-1.014 0-1.834-.821-1.834-1.834 0-.451.163-.864.434-1.184" fill="none"/></svg>